<?xml version="1.0" encoding="UTF-8"?>
<svg id="Layer_1" data-name="Layer 1" xmlns="http://www.w3.org/2000/svg" viewBox="0 0 512 512">
  <path d="M307.6,165.17s-.01-.02-.02-.03h.09s-.04.02-.07.03Z"/>
  <path d="M307.21,164.51s-.02-.02-.02-.03h.09s-.05.02-.07.03Z"/>
  <path d="M412.58,280.9c-6.15,0-36.9-1.85-37.32-38.22-.12-10.87,3.65-20.25,11.22-27.89,6.55-6.62,15.47-10.26,25.1-10.26,22.25,0,34.52,13.02,34.52,36.67,0,.61.02,4.46.02,4.46l-55.41-.07v.31c.37,13.07,8.12,27.14,24.26,27.14,12.49,0,21.11-6.44,24.24-9.19.75-.66,1.61-1.53,2.14-2.09l.02,8.37h0c-.12,0-11,10.51-28.3,10.75h-.48ZM433.32,237.2v-.29c0-10.36-7.31-24.71-21.05-24.71-10.49,0-21.11,8.48-21.11,24.68v.3h3.55s38.6.03,38.6.03Z"/>
  <path d="M140.05,198.36c-2.52,0-4.9-.98-6.69-2.74-1.79-1.77-2.79-4.12-2.79-6.62,0-5.17,4.27-9.39,9.5-9.39s9.54,4.2,9.56,9.36c-.03,5.17-4.31,9.38-9.53,9.38h-.05Z"/>
  <path d="M133.89,280.03l.05-12.23v-50.9c0-4.62-.88-7.96-2.6-9.95h16.46l-.08,73.04-13.83.03Z"/>
  <path d="M345.34,177.3l14.02.22-.08,65.48c0,11.42-.31,13.33.07,17.46,1.47,16.19,12.88,9.29,14.34,10.02,0,0-3.58,9.56-14.14,9.56-14.54,0-14.08-12.61-14.06-14.46l-.15-88.28Z"/>
  <path d="M252.98,279.95h-13.98c0-1.18.17-3.14.17-12.45l.02-42.19c0-5.31-2.82-11.52-10.76-11.52-10.61,0-14.56,6.69-14.56,10.9,0,0-.09,31.46-.09,42.69s1.89,12.62,1.89,12.62h-13.82l.04-.73v-.51s.02-11.29.02-11.29v-41.87c-.01-4.42-1.44-11.84-11.03-11.84-12.53,0-14.4,7.7-14.4,12.3,0,0-.1,29.65-.1,41.26s2.36,12.68,2.36,12.68h-16.37s.07-64.72.07-64.72c0-5.55-1.77-7.93-3.31-8.85l17.36-.02-.05,6.23c1.95-3.81,7.78-8.35,17.59-8.35,7.67,0,14.75,3.94,17.63,9.8l.22.46.27-.43c3.23-5.09,8.79-9.64,18.66-9.83,13.21-.26,20.26,6.32,20.44,18.28.03,1.67-.02,16.95-.07,29.24-.02,7.32-.05,4.48-.05,15.58s1.83,12.55,1.83,12.55Z"/>
  <path d="M281.68,212.71l.5-.44c1.45-1.29,9.32-7.7,21.39-7.7,20.78.06,32.01,18.02,32.01,34.91,0,26.77-16.75,38.95-31.09,41.25-1.63.25-3.29.38-4.94.38-10.14,0-17.44-4.92-17.51-4.97l-.47-.33v.57s-.15,10.27-.15,22.59c0,7.62,1.39,10.44,2.39,11.48h-17.83s.14-104.2.14-104.2l15.57-.03v6.48ZM299.67,212.69c-12.8,0-17.91,7.81-17.95,7.88l-.06,6.47c-.03,9.85-.06,24.31-.08,38.46,1.89,1.69,7.31,6.09,15.49,6.09,22.98,0,24.77-23.22,24.77-30.34,0-8.47-2.09-28.19-21.54-28.56h-.61Z"/>
  <path d="M116.05,194.57s-10.01-10.68-26.85-10.68c-10.75,0-18.84,6.37-18.85,16.04,0,11,11.14,15.09,21.92,19.04.02,0,2.57.94,3.56,1.32,12.34,4.69,26.24,11.21,26.22,29.35-.03,20.91-18.25,31.84-35.49,31.84-15.61,0-23.58-4.3-29.82-8.34l-.17-.11.07-11.73.62.54c6.94,6.08,16.98,9.43,28.28,9.43,13.57,0,19.96-6.64,21.18-15.67,1.86-13.69-9.2-17.22-18.59-20.85-1.53-.59-3.14-1.21-4.69-1.87l-.82-.36c-11.87-5.09-26.65-11.43-26.61-28.56.03-18.97,17.02-28.59,32.79-29.49.93-.05,1.84-.08,2.7-.08,11.13,0,19.3,4.19,24.54,7.94v12.23Z"/>
  <path d="M453.26,209.71c-1.88,1.82-4.09,2.74-6.66,2.74s-4.83-.92-6.64-2.74c-1.85-1.84-2.73-4.06-2.73-6.69s.88-4.77,2.76-6.58c1.83-1.83,4.02-2.74,6.61-2.74s4.78.91,6.66,2.74c1.84,1.8,2.74,4,2.74,6.58s-.9,4.82-2.74,6.69M440.88,197.34c-1.54,1.55-2.33,3.5-2.33,5.71s.79,4.2,2.33,5.73c1.55,1.63,3.46,2.39,5.72,2.39s4.13-.76,5.74-2.39c1.54-1.53,2.31-3.46,2.31-5.73s-.77-4.16-2.31-5.71c-1.62-1.57-3.52-2.41-5.74-2.41s-4.12.84-5.72,2.41M446.41,197.83c1.32,0,2.19.17,2.81.39,1.07.43,1.61,1.31,1.61,2.64,0,.92-.32,1.55-.99,1.99-.38.26-.88.42-1.51.52.78.15,1.41.47,1.76,1.01.4.54.57,1.09.57,1.61v.74c0,.24,0,.52.02.78.01.24.04.44.08.53l.06.12h-1.71c0-.05-.02-.07-.02-.1-.04-.02-.04-.08-.04-.08l-.05-.37v-.8c0-1.18-.26-2-.94-2.39-.34-.19-1.05-.3-1.97-.3h-1.5v4.04h-1.8v-10.34h3.6ZM448.36,199.46c-.45-.24-1.15-.36-2.19-.36h-1.56v3.7h1.61c.82,0,1.43-.06,1.75-.21.76-.28,1.07-.8,1.07-1.6,0-.71-.21-1.25-.68-1.54"/>
  <path d="M258.26,337.56c-48.9-.38-96.53-9.76-129.48-24.76l.02.79c31.39,17.96,79.23,33.54,129.45,33.92,52.5.41,96.86-15.43,128.64-34.3v-.83c-33.65,15.93-77.08,25.58-128.64,25.18Z"/>
</svg>